<svg width="285" height="194" viewBox="0 0 285 194" fill="none" xmlns="http://www.w3.org/2000/svg">
<g clip-path="url(#clip0_4387_42793)">
<path fill-rule="evenodd" clip-rule="evenodd" d="M160.629 0L88.5482 53.0803V101.568L81.1401 91.6626L0 10.6842V102.773L88.6142 193.745V102.724L160.629 49.8154V0ZM217.053 108.971L159.072 193.139H184.193L194.196 178.101L205.861 160.074L221.46 136.197V136.216L227.226 127.302L221.46 145.093V160.074V178.101V193.139H244.666V108.971H217.053ZM132.421 165.25L169.924 109.567H195.876L139.801 193.744H112.537V109.567H132.421V157.509L127.051 173.067L132.421 165.108V165.25ZM262.04 109.567H285.142V193.139H262.04V109.567Z" fill="#F7941E"></path>
</g>
<defs>
<clipPath id="clip0_4387_42793">
<rect width="285" height="194" fill="white"></rect>
</clipPath>
</defs>
</svg>